# xmcd
# 
# Track frame offsets:
#     150
#     12825
#     25127
#     36020
#     49622
#     63432
#     80398
#     95929
#     113032
#     124636
#     140764
# 
# Disc length: 2052
# 
# Revision: 1
# Processed by: cddbd v1.5.2PL0 Copyright (c) Steve Scherf et al.
# Submitted via: fre:ac v1.0.27
# 
DISCID=8d08020b
DTITLE=Kieran Kane - Somewhere Beyond The Roses
DYEAR=2009
DGENRE=Folk-influenced IRE/UK Rock
TTITLE0=Way Down Below
TTITLE1=Why Can't You
TTITLE2=Somewhere Beyond The Roses
TTITLE3=Unfaithful Heart
TTITLE4=Marriage Of Convenience
TTITLE5=Anybody's Game
TTITLE6=More To It Than This
TTITLE7=I Took My Power Back
TTITLE8=Hands Across The Water
TTITLE9=Don't Try To Fight It
TTITLE10=Tell Me Mama
EXTD=
EXTT0=
EXTT1=
EXTT2=
EXTT3=
EXTT4=
EXTT5=
EXTT6=
EXTT7=
EXTT8=
EXTT9=
EXTT10=
PLAYORDER=
